<svg width="1137" height="644" viewBox="0 0 1137 644" fill="none" xmlns="http://www.w3.org/2000/svg">
<path d="M241.5 506.5C161.8 455.2 122 347.2 142.6 243.5C144.9 231.9 150.1 218.1 157.1 203.4C171.7 172.7 200.6 143.5 232.6 118.3C299.8 65.4001 424.6 12.0001 565.3 12.0001C718.6 12.0001 868.2 67.6001 981.8 184.1C1034.6 238.3 1077.4 302.1 1085.8 371.2C1095.2 448.1 1086.3 522.9 1040.4 577.6C1016.7 605.8 990.3 626.3 960.9 634.4C750.9 692.5 628.7 451.1 422.5 522.6C345.2 549.3 285.7 534.9 241.5 506.5Z" fill="#6D92FC"/>
<path d="M460.2 346.7C331.1 303 225.3 249 154.8 208.3C149 221.2 144.6 233.2 142.6 243.5C122.1 347.2 161.9 455.2 241.5 506.5C285.7 534.9 345.2 549.3 422.5 522.5C628.7 451 750.9 692.4 960.9 634.3C990.2 626.2 1016.7 605.7 1040.4 577.5C1074.4 537 1088.1 485.4 1089.1 430.1C926.5 423.5 629.3 403.9 460.2 346.7Z" fill="#AEC5FC"/>
<path d="M966.3 236C1046.3 236 1111.1 300.8 1111.1 380.8V412.4H821.6V380.8C821.6 300.8 886.4 236 966.3 236Z" fill="#C5CEFF"/>
<path d="M876.8 323.3H851.2C849.1 323.3 847.4 321.6 847.4 319.5V312.9C847.4 310.8 849.1 309.1 851.2 309.1H876.8C878.9 309.1 880.6 310.8 880.6 312.9V319.5C880.6 321.6 878.9 323.3 876.8 323.3Z" fill="#E1E7FF"/>
<path d="M896.1 347.9H870.5C868.4 347.9 866.7 346.2 866.7 344.1V337.5C866.7 335.4 868.4 333.7 870.5 333.7H896.1C898.2 333.7 899.9 335.4 899.9 337.5V344.1C899.8 346.2 898.1 347.9 896.1 347.9Z" fill="#C6C6C6"/>
<path d="M940.2 270.9H914.6C912.5 270.9 910.8 269.2 910.8 267.1V260.5C910.8 258.4 912.5 256.7 914.6 256.7H940.2C942.3 256.7 944 258.4 944 260.5V267.1C943.9 269.2 942.3 270.9 940.2 270.9Z" fill="#E1E7FF"/>
<path d="M918.8 376.2H893.2C891.1 376.2 889.4 374.5 889.4 372.4V365.8C889.4 363.7 891.1 362 893.2 362H918.8C920.9 362 922.6 363.7 922.6 365.8V372.4C922.6 374.5 920.9 376.2 918.8 376.2Z" fill="#C6C6C6"/>
<path d="M846.8 412.3H923V370.3C923 348.5 905.4 330.9 883.6 330.9H850.1C848.3 330.9 846.8 332.4 846.8 334.2V412.3H846.8Z" fill="#A9BBFC"/>
<path d="M907.2 338.7H855.4V366H922.8C921.6 354.8 915.7 345.1 907.2 338.7Z" fill="#B7C3F9"/>
<path d="M851.7 350.3V377.6H923V370.3C923 363 921 356.2 917.5 350.3H851.7Z" fill="#A9BBFC"/>
<path d="M851.7 396H923V370.3C923 369.8 923 369.3 923 368.7H851.7V396Z" fill="#B7C3F9"/>
<rect x="851.7" y="385" width="71.3" height="18.7" fill="#A9BBFC"/>
<rect x="847.7" y="402.6" width="75.3" height="9.6" fill="#B7C3F9"/>
<path d="M848.5 330.9V378H889.1V371.6C889.1 349.2 870.9 331 848.5 330.9Z" fill="#B7C3F9"/>
<path d="M848.6 330.9V378H808V371.6C808 349.2 826.2 331 848.6 330.9Z" fill="#AABBF9"/>
<path d="M823.9 339.1C814 346.5 807.7 358.3 807.7 371.6V373.6H889.1V371.6C889.1 358.1 882.5 346.2 872.4 338.8L847.1 352L823.9 339.1Z" fill="#C5CEFF"/>
<path d="M813.7 350.4C809.9 356.6 807.7 363.9 807.7 371.6V378.8H889.1V371.6C889.1 363.8 886.9 356.4 883 350.2L847.1 369L813.7 350.4Z" fill="#B7C3F9"/>
<path d="M889 368.7L847 379.2L807.9 368.7C807.8 369.6 807.8 370.6 807.8 371.5V412.2H889.2V371.5C889.1 370.6 889 369.7 889 368.7Z" fill="#C5CEFF"/>
<rect x="807.7" y="385" width="81.4" height="27.3" fill="#B7C3F9"/>
<rect x="807.7" y="402.6" width="81.4" height="9.6" fill="#C5CEFF"/>
<path d="M874.8 412.3H822V371.6C822 357 833.8 345.2 848.4 345.2C863 345.2 874.8 357 874.8 371.6V412.3Z" fill="#AABBF9"/>
<path d="M973.9 391.5H948.3C946.2 391.5 944.5 389.8 944.5 387.7V381.1C944.5 379 946.2 377.3 948.3 377.3H973.9C976 377.3 977.7 379 977.7 381.1V387.7C977.7 389.8 976 391.5 973.9 391.5Z" fill="#B7C3F9"/>
<path d="M993.4 295.5H967.8C965.7 295.5 964 293.8 964 291.7V285.1C964 283 965.7 281.3 967.8 281.3H993.4C995.5 281.3 997.2 283 997.2 285.1V291.7C997.2 293.9 995.5 295.5 993.4 295.5Z" fill="#B7C3F9"/>
<path d="M959.4 295.5H933.8C931.7 295.5 930 293.8 930 291.7V285.1C930 283 931.7 281.3 933.8 281.3H959.4C961.5 281.3 963.2 283 963.2 285.1V291.7C963.2 293.9 961.5 295.5 959.4 295.5Z" fill="#E1E7FF"/>
<path d="M1083.1 362.6V369.2C1083.1 371.3 1081.4 373 1079.3 373H1053.7C1051.6 373 1049.9 371.3 1049.9 369.2V362.6C1049.9 360.5 1051.6 358.8 1053.7 358.8H1079.3C1081.4 358.8 1083.1 360.5 1083.1 362.6Z" fill="#E1E7FF"/>
<path d="M1048.7 362.6V369.2C1048.7 371.3 1047 373 1044.9 373H1019.3C1017.2 373 1015.5 371.3 1015.5 369.2V362.6C1015.5 360.5 1017.2 358.8 1019.3 358.8H1044.9C1047 358.8 1048.7 360.5 1048.7 362.6Z" fill="#B7C3F9"/>
<path d="M1064 347.3V353.9C1064 356 1062.3 357.7 1060.2 357.7H1034.6C1032.5 357.7 1030.8 356 1030.8 353.9V347.3C1030.8 345.2 1032.5 343.5 1034.6 343.5H1060.2C1062.3 343.5 1064 345.2 1064 347.3Z" fill="#E1E7FF"/>
<path d="M1023.7 407.6V414.2C1023.7 416.3 1022 418 1019.9 418H994.3C992.2 418 990.5 416.3 990.5 414.2V407.6C990.5 405.5 992.2 403.8 994.3 403.8H1019.9C1022.1 403.8 1023.7 405.5 1023.7 407.6Z" fill="#E1E7FF"/>
<path d="M1041.4 275.8H1066.1C1060.7 270.7 1054.9 265.9 1048.7 261.7H1041.4C1039.3 261.7 1037.6 263.4 1037.6 265.5V272.1C1037.7 274.1 1039.3 275.8 1041.4 275.8Z" fill="#E1E7FF"/>
<path d="M1070.1 327.5H1044.5C1042.4 327.5 1040.7 325.8 1040.7 323.7V317.1C1040.7 315 1042.4 313.3 1044.5 313.3H1070.1C1072.2 313.3 1073.9 315 1073.9 317.1V323.7C1073.9 325.8 1072.2 327.5 1070.1 327.5Z" fill="#B7C3F9"/>
<path d="M791.5 431.1H1127.3C1132.4 431.1 1136.5 427 1136.5 421.9V421.4C1136.5 416.3 1132.4 412.2 1127.3 412.2H791.5C786.4 412.2 782.3 416.3 782.3 421.4V421.9C782.3 426.9 786.4 431.1 791.5 431.1Z" fill="#E1E7FF"/>
<path d="M21.4001 366.8C21.4001 366.8 -17.0999 368.2 10.4001 321.4C37.9001 274.6 55.8001 263.6 55.8001 263.6L21.4001 366.8Z" fill="#FCFCE3"/>
<path d="M31.3001 310C3.50012 369.2 23.9001 367.4 23.9001 367.4L32.9001 336.7L31.3001 310Z" fill="#EAE9CE"/>
<path d="M548 272C561.918 272 573.2 260.718 573.2 246.8C573.2 232.883 561.918 221.6 548 221.6C534.082 221.6 522.8 232.883 522.8 246.8C522.8 260.718 534.082 272 548 272Z" fill="#FCFCE3"/>
<path d="M548 261C555.842 261 562.2 254.643 562.2 246.8C562.2 238.958 555.842 232.6 548 232.6C540.158 232.6 533.8 238.958 533.8 246.8C533.8 254.643 540.158 261 548 261Z" fill="#DDDABF"/>
<path d="M74.7001 359.4C74.7001 359.4 78.4001 556.4 142.5 604H249.7C249.7 604 241.5 573.8 195.6 579.3C195.6 579.3 189.2 485.9 233.2 469.4C277.2 452.9 74.7001 359.4 74.7001 359.4Z" fill="#EAE9CE"/>
<path d="M24.6001 359.4C24.6001 359.4 28.3001 556.4 92.4001 604H199.6C199.6 604 191.4 573.8 145.5 579.3C145.5 579.3 139.1 485.9 183.1 469.4C227.1 452.9 24.6001 359.4 24.6001 359.4Z" fill="#FCFCE3"/>
<path d="M323.3 359.4C323.3 359.4 327 556.4 391.1 604H498.3C498.3 604 490.1 573.8 444.2 579.3C444.2 579.3 389.4 388.1 500.2 391.4C547.1 392.8 323.3 359.4 323.3 359.4Z" fill="#EAE9CE"/>
<path d="M273.2 359.4C273.2 359.4 276.9 556.4 341 604H448.2C448.2 604 440 573.8 394.1 579.3C394.1 579.3 376 452.9 420 436.5C464 420.1 273.2 359.4 273.2 359.4Z" fill="#FCFCE3"/>
<path d="M64.0001 462.5C-11.2999 401.5 16.1001 249.5 110 225.5C163.9 211.7 227.8 231.4 262.4 243.1C330.6 266.2 338.9 232 392 217.1C552.9 171.9 563.6 268.3 550 317.1C532.2 380.9 473 411.6 473 411.6C473 411.6 223.7 584.5 66.8001 464.8C65.8001 464 64.9001 463.2 64.0001 462.5Z" fill="#FCFCE3"/>
<path d="M154.2 503.9C154.2 503.9 164.5 474.1 160.7 431.7C156.9 389.3 170.8 477.4 163.9 510.8L154.2 503.9Z" fill="#EAE9CE"/>
<path d="M394.2 478.6C394.2 478.6 404.5 448.8 400.7 406.4C396.9 364 410.8 452.1 403.9 485.5L394.2 478.6Z" fill="#EAE9CE"/>
<path d="M490.6 360.2H464C458.7 360.2 454.3 355.8 454.3 350.5V285.1C454.3 279.8 458.7 275.4 464 275.4H490.6C495.9 275.4 500.3 279.8 500.3 285.1V350.5C500.3 355.8 495.9 360.2 490.6 360.2Z" fill="#EAE9CE"/>
<path d="M432.4 278.8C434.996 278.8 437.1 276.696 437.1 274.1C437.1 271.504 434.996 269.4 432.4 269.4C429.804 269.4 427.7 271.504 427.7 274.1C427.7 276.696 429.804 278.8 432.4 278.8Z" fill="#01173F"/>
<path d="M519.4 278.8C521.996 278.8 524.1 276.696 524.1 274.1C524.1 271.504 521.996 269.4 519.4 269.4C516.804 269.4 514.7 271.504 514.7 274.1C514.7 276.696 516.804 278.8 519.4 278.8Z" fill="#01173F"/>
<path d="M491.7 321.4C491.7 327 485.2 336.2 477.2 336.2C469.2 336.2 462.7 326.9 462.7 321.4C462.7 315.9 469.2 311.3 477.2 311.3C485.3 311.4 491.7 315.9 491.7 321.4Z" fill="#01173F"/>
<path d="M413.9 226.6C409.4 219.7 401.6 215.2 392.8 215.2C378.9 215.2 367.6 226.5 367.6 240.4C367.6 249.5 372.4 257.4 379.6 261.8C382.6 251.5 391.6 230.2 413.9 226.6Z" fill="#D3D3D3"/>
<path d="M409.3 227C404.7 219.9 400.4 216.4 391.4 216.4C377.3 216.4 365 231 365 245.3C365 254.6 369.8 263.2 377.1 267.7C380.1 257.1 386.7 230.7 409.3 227Z" fill="#EAE9CE"/>
<path d="M393.3 329.2C393.3 329.2 404.4 346.6 425 360.9V351.4C425 351.4 458.3 383.1 480.4 392.6C480.4 392.6 501 381.5 516.8 351.4V360.9C516.8 360.9 532.6 348.2 545.3 329.2C545.3 329.2 546.9 359.3 512 395.7L519.9 379.9C519.9 379.9 504.1 402.1 481.9 416.3C481.9 416.3 442.3 403.6 431.2 379.9V389.4C431.3 389.4 394.8 364 393.3 329.2Z" fill="#FCFCE3"/>
<path d="M382.8 281.5C384.9 291.6 386.8 301.8 388.7 312C389.7 317.1 390.6 322.2 391.6 327.2C392.1 329.7 392.6 332.2 393.2 334.7C393.5 336 393.8 337.1 394.1 338.3C394.3 338.9 394.5 339.4 394.7 339.9L395 340.7L395.4 341.5C397.5 346.1 400.2 350.3 403 354.5C405.9 358.7 409.1 362.6 412.4 366.5C419.1 374.2 426.5 381.4 434.2 388.2L433.6 389C424.8 383.4 416.8 376.6 409.5 369.1C405.9 365.3 402.5 361.3 399.3 357.1C398.5 356 397.8 354.9 397 353.8L395.9 352.2L394.9 350.5C394.2 349.4 393.5 348.2 392.9 347.1L391.1 343.5L390.6 342.6C390.5 342.3 390.3 341.9 390.2 341.6C390 340.9 389.7 340.2 389.5 339.6C389.1 338.3 388.8 337 388.5 335.7C387.9 333.1 387.4 330.6 386.9 328C386 322.9 385.2 317.7 384.6 312.6C383.2 302.3 382.2 292 381.6 281.6L382.8 281.5Z" fill="#EAE9CE"/>
<path d="M493.8 337.4C493.1 337 492.1 337.3 491.7 338C490.3 340.4 488.2 343.3 485.6 343.3C482.8 343.3 480.1 339.8 479.3 338.5C479.2 338.3 478.8 324.1 478.8 324.1C478.8 323.3 478.1 322.6 477.3 322.6C476.5 322.6 475.8 323.3 475.8 324.1C475.8 324.1 475.4 338.3 475.3 338.5C474.5 339.8 471.8 343.3 469 343.3C466.4 343.3 464.3 340.4 462.9 338C462.5 337.3 461.6 337 460.8 337.4C460.1 337.8 459.8 338.7 460.2 339.5C462.7 344 465.7 346.4 468.9 346.4C468.9 346.4 468.9 346.4 469 346.4C473 346.4 476.1 342.7 477.3 341C478.5 342.8 481.6 346.4 485.6 346.4C485.6 346.4 485.6 346.4 485.7 346.4C488.9 346.4 491.9 344.1 494.4 339.5C494.8 338.7 494.5 337.8 493.8 337.4Z" fill="#01173F"/>
<path d="M413.9 226.6C409.4 219.7 401.6 215.2 392.8 215.2C378.9 215.2 367.6 226.5 367.6 240.4C367.6 249.5 372.4 257.4 379.6 261.8C382.6 251.5 391.6 230.2 413.9 226.6Z" fill="#FCFCE3"/>
<path d="M383.7 251.2C387.4 243.6 393.4 235.2 402.8 230.3C400.2 227.8 396.7 226.2 392.8 226.2C385 226.2 378.6 232.5 378.6 240.4C378.6 244.7 380.6 248.6 383.7 251.2Z" fill="#DDDABF"/>
<path d="M871.9 147H1072C1072 147 1073.2 117.9 1047.6 119.1C1047.6 119.1 1063.9 60.9001 1012.7 60.9001C961.5 60.9001 977.8 110.9 977.8 110.9C977.8 110.9 972.3 77.1001 943.5 81.4001C908.8 86.6001 912.3 121.8 912.3 121.8C912.3 121.8 905.3 97.9001 881.7 111.4C860.2 123.7 871.9 147 871.9 147Z" fill="#C5CEFF"/>
<path fill-rule="evenodd" clip-rule="evenodd" d="M902 73.6001H895.9C895.9 76.1001 895.9 78.6001 896 81.0001C894.5 79.6001 892.9 78.1001 891.4 76.6001C890.85 77.1001 890.35 77.6001 889.863 78.0876C889.375 78.5751 888.9 79.0501 888.4 79.5001C889.271 80.3037 890.096 81.1522 890.907 81.9855C891.307 82.3965 891.704 82.8037 892.1 83.2001L895.7 86.8001C895.9 86.9001 896 87.2001 896 87.4001V91.2001C896 91.5001 895.9 91.7001 895.6 91.8001C895.2 92.0001 894.825 92.2251 894.45 92.4501C894.075 92.6751 893.7 92.9001 893.3 93.1001C893.233 93.1001 893.156 93.1112 893.078 93.1223C892.922 93.1445 892.767 93.1668 892.7 93.1001L892.7 93.1001C891.6 92.5001 890.5 91.9001 889.4 91.2001C889.2 91.1001 889.1 90.8001 889 90.5001C888.1 87.3001 887.3 84.2001 886.5 81.1001C886.444 81.0439 886.419 80.9563 886.391 80.8547C886.369 80.7755 886.344 80.6878 886.3 80.6001L886.3 80.6001C885 80.9001 883.7 81.2001 882.4 81.6001C882.734 82.7678 883.036 83.9665 883.343 85.1788C883.587 86.1467 883.834 87.1234 884.1 88.1001C882.633 87.1668 881.167 86.3223 879.7 85.4779C878.967 85.0557 878.233 84.6334 877.5 84.2001C877 85.1001 876.5 85.9751 876 86.8501C875.5 87.7251 875 88.6001 874.5 89.5001C875.233 89.9334 875.956 90.3668 876.678 90.8001C878.122 91.6668 879.567 92.5334 881.1 93.4001C880.163 93.6556 879.245 93.893 878.336 94.1276C877.112 94.4441 875.906 94.7556 874.7 95.1001C874.85 95.7501 875.025 96.4001 875.2 97.0501C875.375 97.7001 875.55 98.3501 875.7 99.0001C878.4 98.3001 881 97.6001 883.6 96.9001L885.7 96.3001C885.9 96.3001 886.2 96.3001 886.4 96.4001C886.95 96.7001 887.475 97.0251 888 97.3501C888.525 97.6751 889.05 98.0001 889.6 98.3001C889.9 98.5001 889.9 98.6001 889.9 98.9001V101.6C889.9 101.9 889.8 102.1 889.6 102.2C888.6 102.8 887.6 103.4 886.5 104C886.2 104.1 885.9 104.2 885.6 104.1C882.4 103.2 879.1 102.3 875.8 101.4C875.5 102.7 875.2 103.9 874.8 105.3L874.801 105.3C876.901 105.9 879 106.5 881.2 107.1C879.667 107.967 878.222 108.833 876.778 109.7C876.056 110.133 875.333 110.567 874.6 111C875.6 112.7 876.6 114.5 877.6 116.3C879.7 115 881.9 113.7 884.2 112.4C883.9 113.5 883.625 114.575 883.35 115.65C883.075 116.725 882.8 117.8 882.5 118.9C883.15 119.1 883.8 119.275 884.45 119.45C885.1 119.625 885.75 119.8 886.4 120C886.45 119.75 886.525 119.525 886.6 119.3C886.675 119.075 886.75 118.85 886.8 118.6C887.15 117.2 887.525 115.775 887.9 114.35C888.275 112.925 888.65 111.5 889 110.1C889.1 109.7 889.3 109.5 889.6 109.3C890.7 108.7 891.7 108.1 892.7 107.5L892.7 107.5C892.9 107.3 893.1 107.3 893.3 107.5C893.7 107.75 894.075 107.975 894.45 108.2C894.825 108.425 895.2 108.65 895.6 108.9C895.7 109 895.9 109.2 895.9 109.4V113.2C895.9 113.5 895.8 113.7 895.6 113.9C894.45 115.05 893.325 116.2 892.2 117.35C891.075 118.5 889.95 119.65 888.8 120.8C888.6 121 888.5 121.1 888.3 121.2C888.959 121.739 889.546 122.314 890.126 122.883C890.515 123.263 890.899 123.639 891.3 124C892.063 123.288 892.825 122.551 893.601 121.801C894.351 121.075 895.113 120.338 895.9 119.6V127.2H902V119.7C903.6 121.2 905.1 122.7 906.6 124.2L906.6 124.2C907.088 123.712 907.576 123.248 908.076 122.772C908.6 122.274 909.137 121.763 909.7 121.2C909.5 121.1 909.2 120.9 909 120.7L902.4 114.1C902.1 113.8 902 113.6 902 113.2V109.6C902 109.3 902.1 109.1 902.4 109C902.584 108.895 902.774 108.79 902.968 108.684C903.513 108.384 904.084 108.069 904.6 107.7C904.8 107.5 905 107.5 905.3 107.7C906.4 108.3 907.4 108.9 908.4 109.5L908.4 109.5C908.6 109.6 908.8 109.9 908.9 110.2C909.8 113.4 910.7 116.6 911.5 119.8C911.5 119.9 911.5 120 911.6 120.2L911.6 120.2C912.9 119.9 914.2 119.6 915.5 119.2C915.2 118.1 914.925 117.025 914.65 115.95C914.375 114.875 914.1 113.8 913.8 112.7C915.267 113.633 916.733 114.478 918.2 115.322C918.933 115.745 919.667 116.167 920.4 116.6C920.9 115.7 921.4 114.825 921.9 113.95C922.4 113.075 922.9 112.2 923.4 111.3C922.667 110.867 921.945 110.433 921.222 110C919.778 109.133 918.333 108.267 916.8 107.4C917.737 107.145 918.656 106.907 919.564 106.673C920.789 106.356 921.994 106.045 923.2 105.7C923.05 105.05 922.875 104.4 922.7 103.75C922.525 103.1 922.35 102.45 922.2 101.8C921 102.1 919.825 102.425 918.65 102.75C917.475 103.075 916.3 103.4 915.1 103.7C914.65 103.8 914.175 103.925 913.7 104.05C913.225 104.175 912.75 104.3 912.3 104.4C912.1 104.4 911.8 104.4 911.6 104.3C911.05 104 910.525 103.675 910 103.35C909.475 103.025 908.95 102.7 908.4 102.4C908.1 102.2 908.1 102.1 908.1 101.8V99.1001C908.1 98.8001 908.2 98.6001 908.4 98.5001C909.5 97.8001 910.5 97.2001 911.6 96.6001C911.8 96.4001 912.2 96.4001 912.4 96.5001C915.6 97.4001 918.9 98.3001 922.2 99.2001C922.5 97.9001 922.8 96.7001 923.2 95.3001C921.1 94.7001 919 94.1001 916.8 93.5001C918.333 92.6334 919.778 91.7668 921.222 90.9001C921.945 90.4668 922.667 90.0334 923.4 89.6001C922.4 87.9001 921.4 86.1001 920.4 84.3001C919.667 84.7334 918.945 85.1668 918.222 85.6001C916.778 86.4668 915.333 87.3334 913.8 88.2001C914.1 87.1001 914.375 86.0251 914.65 84.9501C914.925 83.8751 915.2 82.8001 915.5 81.7001C915.05 81.6001 914.625 81.4751 914.2 81.3501C913.775 81.2251 913.35 81.1001 912.9 81.0001C911.6 80.7001 911.6 80.7001 911.3 81.9001C910.9 83.3501 910.525 84.8001 910.15 86.2501C909.775 87.7001 909.4 89.1501 909 90.6001C908.9 91.0001 908.8 91.2001 908.4 91.4001L905.4 93.2001C905.1 93.4001 905 93.4001 904.7 93.2001C904 92.7001 903.3 92.3001 902.5 91.9001C902.2 91.7001 902.1 91.6001 902.1 91.3001V87.5001C902.1 87.2001 902.2 87.0001 902.4 86.8001C903.55 85.6501 904.675 84.5001 905.8 83.3501C906.925 82.2001 908.05 81.0501 909.2 79.9001C909.25 79.8501 909.325 79.8001 909.4 79.7501C909.475 79.7001 909.55 79.6501 909.6 79.6001C909.1 79.1501 908.6 78.6751 908.1 78.2001C907.6 77.7251 907.1 77.2501 906.6 76.8001C905.838 77.5118 905.075 78.2493 904.3 78.9995C903.549 79.7251 902.787 80.4626 902 81.2001V73.6001ZM899 97.3001C900.7 97.2001 902.1 98.7001 902.1 100.4C902.1 102.2 900.7 103.6 899 103.6C897.3 103.6 895.9 102.2 895.9 100.5C895.9 98.7001 897.3 97.3001 899 97.3001Z" fill="#EBEFFC"/>
<path d="M393.4 86.7001H193.3C193.3 86.7001 192.1 57.6001 217.7 58.8001C217.7 58.8001 201.4 0.600098 252.6 0.600098C303.8 0.600098 287.5 50.6001 287.5 50.6001C287.5 50.6001 293 16.8001 321.8 21.1001C356.5 26.3001 353 61.5001 353 61.5001C353 61.5001 360 37.6001 383.6 51.1001C405.1 63.4001 393.4 86.7001 393.4 86.7001Z" fill="#C5CEFF"/>
<path d="M206.3 99H323.1C323.1 99 333.8 62.7 294.3 69C294.3 69 281.4 31.4 252.7 44.2C228.1 55.2 237.7 78.3 237.7 78.3C237.7 78.3 209.9 59.4 206.3 99Z" fill="#EBEFFC"/>
<path d="M523 172V192.6" stroke="white"/>
<path d="M512.7 182.3H533.2" stroke="white"/>
<path d="M515.7 175.1L530.2 189.6" stroke="white"/>
<path d="M515.7 189.6L530.2 175.1" stroke="white"/>
<path d="M723.3 35.2001V55.8001" stroke="white"/>
<path d="M713 45.5001H733.6" stroke="white"/>
<path d="M716 38.2001L730.6 52.8001" stroke="white"/>
<path d="M716 52.8001L730.6 38.2001" stroke="white"/>
<path d="M686.2 267.1V287.6" stroke="white"/>
<path d="M675.9 277.3H696.5" stroke="white"/>
<path d="M679 270.1L693.5 284.6" stroke="white"/>
<path d="M679 284.6L693.5 270.1" stroke="white"/>
<path fill-rule="evenodd" clip-rule="evenodd" d="M617.65 171.5C617.025 172.1 616.4 172.7 615.8 173.3C615.8 171.4 615.8 169.4 615.7 167.7H610.8V173.8C609.5 172.5 608.3 171.3 607.1 170.2C606.7 170.6 606.3 170.975 605.9 171.35C605.5 171.725 605.1 172.1 604.7 172.5L605 172.8C606.9 174.7 608.7 176.5 610.5 178.4C610.7 178.5 610.8 178.7 610.8 178.9V181.9C610.8 182.2 610.7 182.3 610.5 182.4C609.9 182.7 609.3 183 608.7 183.4C608.4 183.5 608.3 183.5 608.1 183.4C607.7 183.15 607.3 182.925 606.9 182.7C606.5 182.475 606.1 182.25 605.7 182C605.4 181.8 605.3 181.6 605.2 181.3C604.6 178.9 604 176.6 603.4 174.3C603.25 173.8 603.175 173.55 603.013 173.463C602.85 173.375 602.6 173.45 602.1 173.6L600 174.2C600.288 175.177 600.542 176.154 600.801 177.151C600.993 177.887 601.188 178.635 601.4 179.4C599.6 178.3 597.9 177.3 596.1 176.3C595.3 177.8 594.5 179.2 593.7 180.6L593.7 180.6C594.321 180.965 594.956 181.331 595.599 181.701C596.716 182.344 597.858 183.002 599 183.7C598.15 183.95 597.3 184.175 596.45 184.4C595.6 184.625 594.75 184.85 593.9 185.1C594.1 186.2 594.4 187.3 594.7 188.3C597.4 187.6 600 186.9 602.6 186.2C602.8 186.1 603 186.1 603.2 186.2C603.65 186.45 604.075 186.7 604.5 186.95C604.925 187.2 605.35 187.45 605.8 187.7C606 187.8 606 188 606 188.2V190.3C606 190.6 606 190.7 605.8 190.8C605.35 191.05 604.925 191.3 604.5 191.55C604.075 191.8 603.65 192.05 603.2 192.3C603 192.4 602.8 192.4 602.6 192.4C602.25 192.3 601.875 192.2 601.5 192.1C601.125 192 600.75 191.9 600.4 191.8C598.5 191.2 596.6 190.7 594.7 190.2C594.536 191.104 594.304 191.94 594.06 192.82C594.007 193.011 593.954 193.204 593.9 193.4C594.94 193.706 595.943 193.975 596.977 194.251C597.633 194.427 598.302 194.606 599 194.8C597.2 195.9 595.5 196.9 593.7 197.9C594.5 199.4 595.3 200.8 596.1 202.2L596.1 202.2C596.721 201.835 597.356 201.469 597.999 201.099C599.116 200.456 600.258 199.798 601.4 199.1C601.188 199.865 600.993 200.613 600.801 201.35C600.542 202.346 600.288 203.323 600 204.3C601 204.5 602.1 204.8 603.1 205.1C603.1 205.05 603.125 205 603.15 204.95C603.175 204.9 603.2 204.85 603.2 204.8C603.55 203.5 603.9 202.225 604.25 200.95C604.6 199.675 604.95 198.4 605.3 197.1C605.3 196.8 605.5 196.6 605.7 196.5C606.1 196.25 606.525 196 606.95 195.75C607.375 195.5 607.8 195.25 608.2 195C608.4 194.8 608.6 194.8 608.8 195C609.1 195.15 609.4 195.325 609.7 195.5C610 195.675 610.3 195.85 610.6 196C610.8 196.1 610.9 196.3 610.9 196.5V199.4C610.9 199.7 610.8 199.9 610.6 200.1C609.404 201.23 608.252 202.404 607.085 203.593C606.496 204.193 605.904 204.796 605.3 205.4C605.1 205.5 604.9 205.6 604.7 205.8C605.163 206.263 605.6 206.674 606.024 207.072C606.424 207.447 606.812 207.812 607.2 208.2C607.8 207.6 608.425 207 609.05 206.4C609.675 205.8 610.3 205.2 610.9 204.6V210.6H615.8V204.5C616.45 205.1 617.075 205.725 617.688 206.338C618.3 206.95 618.9 207.55 619.5 208.1C619.9 207.7 620.3 207.325 620.7 206.95C621.1 206.575 621.5 206.2 621.9 205.8C621.7 205.7 621.6 205.6 621.5 205.5C620.6 204.6 619.7 203.675 618.8 202.75C617.9 201.825 617 200.9 616.1 200C615.9 199.9 615.8 199.7 615.8 199.5V196.4C615.8 196.3 616 196.1 616.1 196C616.4 195.8 616.7 195.625 617 195.45C617.3 195.275 617.6 195.1 617.9 194.9C618.1 194.8 618.2 194.8 618.4 194.9C619.2 195.3 620.1 195.8 620.9 196.3C621.2 196.4 621.3 196.6 621.4 196.9C622 199.1 622.6 201.4 623.2 203.7L623.2 203.7C623.3 204 623.4 204.4 623.5 204.8L623.5 204.8C624.6 204.6 625.6 204.3 626.6 204C626.313 203.023 626.058 202.046 625.799 201.05C625.607 200.313 625.413 199.565 625.2 198.8C627 199.9 628.7 200.9 630.5 201.9C631.3 200.4 632.1 199 632.9 197.6L632.9 197.6C632.279 197.235 631.644 196.869 631.001 196.499C629.885 195.856 628.742 195.198 627.6 194.5C628.45 194.25 629.3 194.025 630.15 193.8C631 193.575 631.85 193.35 632.7 193.1C632.5 192 632.2 190.9 631.9 189.9C629.2 190.6 626.6 191.3 624 192C623.8 192 623.5 192 623.3 191.9C622.9 191.65 622.475 191.4 622.05 191.15C621.625 190.9 621.2 190.65 620.8 190.4C620.6 190.3 620.6 190.1 620.6 189.9V187.8C620.6 187.5 620.6 187.4 620.8 187.3C621.25 187.05 621.675 186.8 622.1 186.55C622.525 186.3 622.95 186.05 623.4 185.8C623.5 185.7 623.7 185.7 623.9 185.7C624.5 185.8 625 185.9 625.6 186.1C626.65 186.4 627.7 186.675 628.75 186.95C629.8 187.225 630.85 187.5 631.9 187.8C632.065 186.896 632.296 186.06 632.54 185.18C632.593 184.989 632.647 184.796 632.7 184.6C631.66 184.294 630.657 184.026 629.623 183.749C628.967 183.573 628.299 183.394 627.6 183.2C628.742 182.502 629.885 181.844 631.001 181.201C631.644 180.831 632.279 180.465 632.9 180.1C632.1 178.6 631.3 177.2 630.5 175.8L630.5 175.8C629.879 176.165 629.244 176.531 628.601 176.901C627.485 177.544 626.342 178.202 625.2 178.9C625.413 178.135 625.607 177.387 625.799 176.651C626.058 175.654 626.313 174.677 626.6 173.7C625.5 173.5 624.5 173.2 623.5 172.9C623.5 172.95 623.475 173.025 623.45 173.1C623.425 173.175 623.4 173.25 623.4 173.3C623.05 174.55 622.725 175.8 622.4 177.05C622.075 178.3 621.75 179.55 621.4 180.8C621.381 180.839 621.362 180.881 621.342 180.925C621.258 181.108 621.162 181.319 621 181.4C620.2 181.9 619.3 182.4 618.4 182.9C618.3 183 618 183 617.9 182.9C617.6 182.75 617.3 182.575 617 182.4C616.7 182.225 616.4 182.05 616.1 181.9C615.9 181.8 615.8 181.7 615.8 181.4V178.4C615.8 178.2 615.9 178 616 177.9L618.9 175L621.9 172C621.5 171.6 621.1 171.225 620.7 170.85C620.3 170.475 619.9 170.1 619.5 169.7C618.9 170.3 618.275 170.9 617.65 171.5ZM615.8 188.9C615.8 190.3 614.7 191.4 613.3 191.4C612 191.4 610.9 190.3 610.8 188.8C610.8 187.4 612 186.3 613.3 186.3C614.7 186.4 615.8 187.5 615.8 188.9Z" fill="white"/>
<path fill-rule="evenodd" clip-rule="evenodd" d="M265.45 168.2C264.825 168.8 264.2 169.4 263.6 170C263.6 168 263.6 166 263.5 164.4H258.6V170.5C257.3 169.2 256.1 168 254.9 166.9C254.5 167.3 254.1 167.675 253.7 168.05C253.3 168.425 252.9 168.8 252.5 169.2L252.8 169.5C254.7 171.4 256.5 173.2 258.3 175.1C258.5 175.2 258.6 175.4 258.6 175.6V178.6C258.6 178.9 258.5 179 258.3 179.1C257.7 179.4 257.1 179.7 256.5 180.1C256.2 180.2 256.1 180.2 255.9 180.1C255.5 179.85 255.1 179.625 254.7 179.4C254.3 179.175 253.9 178.95 253.5 178.7C253.2 178.5 253.1 178.3 253 178C252.4 175.6 251.8 173.3 251.2 171C251.05 170.5 250.975 170.25 250.813 170.163C250.65 170.075 250.4 170.15 249.9 170.3L247.8 170.9C248.088 171.877 248.342 172.855 248.601 173.851C248.793 174.588 248.988 175.335 249.2 176.1C247.4 175 245.7 174 243.9 173C243.1 174.5 242.3 175.9 241.5 177.3L241.5 177.3C242.121 177.666 242.756 178.031 243.399 178.401C244.516 179.044 245.658 179.702 246.8 180.4C245.95 180.65 245.1 180.875 244.25 181.1C243.4 181.325 242.55 181.55 241.7 181.8C241.9 182.9 242.2 184 242.5 185C245.2 184.3 247.8 183.6 250.4 182.9C250.6 182.8 250.8 182.8 251 182.9C251.45 183.15 251.875 183.4 252.3 183.65C252.725 183.9 253.15 184.15 253.6 184.4C253.8 184.5 253.8 184.7 253.8 184.9V187C253.8 187.3 253.8 187.4 253.6 187.5C253.15 187.75 252.725 188 252.3 188.25C251.875 188.5 251.45 188.75 251 189C250.8 189.1 250.6 189.1 250.4 189.1C250.05 189 249.675 188.9 249.3 188.8C248.925 188.7 248.55 188.6 248.2 188.5C246.3 187.9 244.4 187.4 242.5 186.9C242.336 187.804 242.104 188.64 241.86 189.52C241.807 189.711 241.754 189.904 241.7 190.1C242.74 190.406 243.743 190.675 244.777 190.951C245.433 191.127 246.101 191.306 246.8 191.5C245 192.6 243.3 193.6 241.5 194.6C242.3 196.1 243.1 197.5 243.9 198.9L243.9 198.9C244.521 198.535 245.156 198.169 245.799 197.799C246.916 197.156 248.058 196.498 249.2 195.8C248.988 196.565 248.793 197.313 248.601 198.05C248.342 199.046 248.088 200.023 247.8 201C248.8 201.2 249.9 201.5 250.9 201.8C250.9 201.75 250.925 201.7 250.95 201.65C250.975 201.6 251 201.55 251 201.5C251.35 200.2 251.7 198.925 252.05 197.65C252.4 196.375 252.75 195.1 253.1 193.8C253.1 193.5 253.3 193.3 253.5 193.2C253.9 192.95 254.325 192.7 254.75 192.45C255.175 192.2 255.6 191.95 256 191.7C256.2 191.5 256.4 191.5 256.6 191.7C256.9 191.85 257.2 192.025 257.5 192.2C257.8 192.375 258.1 192.55 258.4 192.7C258.6 192.8 258.7 193 258.7 193.2V196.1C258.7 196.4 258.6 196.6 258.4 196.8C257.204 197.93 256.052 199.104 254.885 200.293C254.296 200.893 253.704 201.496 253.1 202.1C252.9 202.2 252.7 202.3 252.5 202.5C252.963 202.963 253.4 203.374 253.824 203.772C254.224 204.147 254.612 204.512 255 204.9C255.6 204.3 256.225 203.7 256.85 203.1C257.475 202.5 258.1 201.9 258.7 201.3V207.3H263.6V201.2C264.25 201.8 264.875 202.425 265.488 203.038C266.1 203.65 266.7 204.25 267.3 204.8C267.7 204.4 268.1 204.025 268.5 203.65C268.9 203.275 269.3 202.9 269.7 202.5C269.5 202.4 269.4 202.3 269.3 202.2C268.4 201.3 267.5 200.375 266.6 199.45C265.7 198.525 264.8 197.6 263.9 196.7C263.7 196.6 263.6 196.4 263.6 196.2V193.1C263.6 193 263.8 192.8 263.9 192.7C264.2 192.5 264.5 192.325 264.8 192.15C265.1 191.975 265.4 191.8 265.7 191.6C265.9 191.5 266 191.5 266.2 191.6C267 192 267.9 192.5 268.7 193C269 193.1 269.1 193.3 269.2 193.6C269.8 195.8 270.4 198.1 271 200.4L271 200.4C271.1 200.7 271.2 201.1 271.3 201.5L271.3 201.5C272.4 201.3 273.4 201 274.4 200.7C274.113 199.723 273.858 198.746 273.599 197.75C273.407 197.013 273.213 196.265 273 195.5C274.8 196.6 276.5 197.6 278.3 198.6C279.1 197.1 279.9 195.7 280.7 194.3L280.7 194.3C280.079 193.935 279.444 193.569 278.801 193.199C277.685 192.556 276.542 191.898 275.4 191.2C276.25 190.95 277.1 190.725 277.95 190.5C278.8 190.275 279.65 190.05 280.5 189.8C280.3 188.7 280 187.6 279.7 186.6C277 187.3 274.4 188 271.8 188.7C271.6 188.7 271.3 188.7 271.1 188.6C270.7 188.35 270.275 188.1 269.85 187.85C269.425 187.6 269 187.35 268.6 187.1C268.4 187 268.4 186.8 268.4 186.6V184.5C268.4 184.2 268.4 184.1 268.6 184C269.05 183.75 269.475 183.5 269.9 183.25C270.325 183 270.75 182.75 271.2 182.5C271.3 182.4 271.5 182.4 271.7 182.4C272.3 182.5 272.8 182.6 273.4 182.8C274.45 183.1 275.5 183.375 276.55 183.65C277.6 183.925 278.65 184.2 279.7 184.5C279.864 183.596 280.096 182.76 280.34 181.88C280.393 181.689 280.447 181.496 280.5 181.3C279.46 180.994 278.457 180.726 277.423 180.449C276.767 180.273 276.099 180.094 275.4 179.9C276.542 179.202 277.685 178.544 278.801 177.901C279.444 177.531 280.079 177.166 280.7 176.8C279.9 175.3 279.1 173.9 278.3 172.5L278.3 172.5C277.679 172.866 277.044 173.231 276.401 173.601C275.285 174.244 274.142 174.902 273 175.6C273.213 174.835 273.407 174.088 273.599 173.351C273.858 172.355 274.113 171.377 274.4 170.4C273.3 170.2 272.3 169.9 271.3 169.6C271.3 169.65 271.275 169.725 271.25 169.8C271.225 169.875 271.2 169.95 271.2 170C270.85 171.25 270.525 172.5 270.2 173.75C269.875 175 269.55 176.25 269.2 177.5C269.181 177.539 269.162 177.581 269.142 177.625C269.058 177.808 268.962 178.019 268.8 178.1C268 178.6 267.1 179.1 266.2 179.6C266.1 179.7 265.8 179.7 265.7 179.6C265.4 179.45 265.1 179.275 264.8 179.1C264.5 178.925 264.2 178.75 263.9 178.6C263.7 178.5 263.6 178.4 263.6 178.1V175.1C263.6 174.9 263.7 174.7 263.8 174.6L266.7 171.7L269.7 168.7C269.3 168.3 268.9 167.925 268.5 167.55C268.1 167.175 267.7 166.8 267.3 166.4C266.7 167 266.075 167.6 265.45 168.2ZM263.7 185.5C263.7 186.9 262.6 188 261.2 188C259.9 188 258.7 186.9 258.7 185.4C258.7 184 259.9 182.9 261.2 182.9C262.6 183 263.7 184.1 263.7 185.5Z" fill="white"/>
<path fill-rule="evenodd" clip-rule="evenodd" d="M831.95 228.9C831.325 229.5 830.7 230.1 830.1 230.7C830.1 228.8 830.1 226.8 830 225.1H825.1V231.2C823.8 229.9 822.6 228.7 821.4 227.6C821 228 820.6 228.375 820.2 228.75C819.8 229.125 819.4 229.5 819 229.9L819.3 230.2C821.2 232.1 823 233.9 824.8 235.8C825 235.9 825.1 236.1 825.1 236.3V239.3C825.1 239.6 825 239.7 824.8 239.8C824.2 240.1 823.6 240.4 823 240.8C822.7 240.9 822.6 240.9 822.4 240.8C822 240.55 821.6 240.325 821.2 240.1C820.8 239.875 820.4 239.65 820 239.4C819.7 239.2 819.6 239 819.5 238.7C818.9 236.3 818.3 234 817.7 231.7C817.55 231.2 817.475 230.95 817.313 230.863C817.15 230.775 816.9 230.85 816.4 231L814.3 231.6C814.588 232.577 814.842 233.554 815.101 234.551C815.293 235.288 815.488 236.035 815.7 236.8C813.9 235.7 812.2 234.7 810.4 233.7C809.6 235.2 808.8 236.6 808 238L808 238C808.621 238.366 809.256 238.731 809.899 239.101C811.016 239.744 812.158 240.402 813.3 241.1C812.45 241.35 811.6 241.575 810.75 241.8C809.9 242.025 809.05 242.25 808.2 242.5C808.4 243.6 808.7 244.7 809 245.7C811.7 245 814.3 244.3 816.9 243.6C817.1 243.5 817.3 243.5 817.5 243.6C817.95 243.85 818.375 244.1 818.8 244.35C819.225 244.6 819.65 244.85 820.1 245.1C820.3 245.2 820.3 245.4 820.3 245.6V247.7C820.3 248 820.3 248.1 820.1 248.2C819.65 248.45 819.225 248.7 818.8 248.95C818.375 249.2 817.95 249.45 817.5 249.7C817.3 249.8 817.1 249.8 816.9 249.8C816.55 249.7 816.175 249.6 815.8 249.5C815.425 249.4 815.05 249.3 814.7 249.2C812.8 248.6 810.9 248.1 809 247.6C808.836 248.504 808.604 249.34 808.36 250.22C808.307 250.411 808.254 250.604 808.2 250.8C809.24 251.106 810.243 251.375 811.277 251.651C811.933 251.827 812.601 252.006 813.3 252.2C811.5 253.3 809.8 254.3 808 255.3C808.8 256.8 809.6 258.2 810.4 259.6L810.4 259.6C811.021 259.235 811.656 258.869 812.299 258.499C813.416 257.856 814.558 257.198 815.7 256.5C815.488 257.265 815.293 258.013 815.101 258.75C814.842 259.746 814.588 260.723 814.3 261.7C815.3 261.9 816.4 262.2 817.4 262.5C817.4 262.45 817.425 262.4 817.45 262.35C817.475 262.3 817.5 262.25 817.5 262.2C817.85 260.9 818.2 259.625 818.55 258.35C818.9 257.075 819.25 255.8 819.6 254.5C819.6 254.2 819.8 254 820 253.9C820.4 253.65 820.825 253.4 821.25 253.15C821.675 252.9 822.1 252.65 822.5 252.4C822.7 252.2 822.9 252.2 823.1 252.4C823.4 252.55 823.7 252.725 824 252.9C824.3 253.075 824.6 253.25 824.9 253.4C825.1 253.5 825.2 253.7 825.2 253.9V256.8C825.2 257.1 825.1 257.3 824.9 257.5C823.704 258.63 822.552 259.804 821.385 260.993C820.796 261.593 820.204 262.196 819.6 262.8C819.4 262.9 819.2 263 819 263.2C819.463 263.663 819.9 264.074 820.324 264.472C820.724 264.847 821.112 265.212 821.5 265.6C822.1 265 822.725 264.4 823.35 263.8C823.975 263.2 824.6 262.6 825.2 262V268H830.1V261.9C830.75 262.5 831.375 263.125 831.988 263.738C832.6 264.35 833.2 264.95 833.8 265.5C834.2 265.1 834.6 264.725 835 264.35C835.4 263.975 835.8 263.6 836.2 263.2C836 263.1 835.9 263 835.8 262.9C834.9 262 834 261.075 833.1 260.15C832.2 259.225 831.3 258.3 830.4 257.4C830.2 257.3 830.1 257.1 830.1 256.9V253.8C830.1 253.7 830.3 253.5 830.4 253.4C830.7 253.2 831 253.025 831.3 252.85C831.6 252.675 831.9 252.5 832.2 252.3C832.4 252.2 832.5 252.2 832.7 252.3C833.5 252.7 834.4 253.2 835.2 253.7C835.5 253.8 835.6 254 835.7 254.3C836.3 256.5 836.9 258.8 837.5 261.1L837.5 261.1C837.6 261.4 837.7 261.8 837.8 262.2L837.8 262.2C838.9 262 839.9 261.7 840.9 261.4C840.613 260.423 840.358 259.446 840.099 258.45C839.907 257.713 839.713 256.965 839.5 256.2C841.3 257.3 843 258.3 844.8 259.3C845.6 257.8 846.4 256.4 847.2 255L847.2 255C846.579 254.635 845.944 254.269 845.301 253.899C844.185 253.256 843.042 252.598 841.9 251.9C842.75 251.65 843.6 251.425 844.45 251.2C845.3 250.975 846.15 250.75 847 250.5C846.8 249.4 846.5 248.3 846.2 247.3C843.5 248 840.9 248.7 838.3 249.4C838.1 249.4 837.8 249.4 837.6 249.3C837.2 249.05 836.775 248.8 836.35 248.55C835.925 248.3 835.5 248.05 835.1 247.8C834.9 247.7 834.9 247.5 834.9 247.3V245.2C834.9 244.9 834.9 244.8 835.1 244.7C835.55 244.45 835.975 244.2 836.4 243.95C836.825 243.7 837.25 243.45 837.7 243.2C837.8 243.1 838 243.1 838.2 243.1C838.8 243.2 839.3 243.3 839.9 243.5C840.95 243.8 842 244.075 843.05 244.35C844.1 244.625 845.15 244.9 846.2 245.2C846.364 244.296 846.596 243.46 846.84 242.58C846.893 242.389 846.947 242.196 847 242C845.96 241.694 844.957 241.426 843.923 241.149C843.267 240.973 842.599 240.794 841.9 240.6C843.042 239.902 844.185 239.244 845.301 238.601C845.944 238.231 846.579 237.866 847.2 237.5C846.4 236 845.6 234.6 844.8 233.2L844.8 233.2C844.179 233.566 843.544 233.931 842.901 234.301C841.785 234.944 840.642 235.602 839.5 236.3C839.713 235.535 839.907 234.788 840.099 234.051C840.358 233.054 840.613 232.077 840.9 231.1C839.8 230.9 838.8 230.6 837.8 230.3C837.8 230.35 837.775 230.425 837.75 230.5C837.725 230.575 837.7 230.65 837.7 230.7C837.35 231.95 837.025 233.2 836.7 234.45C836.375 235.7 836.05 236.95 835.7 238.2C835.681 238.239 835.662 238.281 835.642 238.325C835.558 238.508 835.462 238.719 835.3 238.8C834.5 239.3 833.6 239.8 832.7 240.3C832.6 240.4 832.3 240.4 832.2 240.3C831.9 240.15 831.6 239.975 831.3 239.8C831 239.625 830.7 239.45 830.4 239.3C830.2 239.2 830.1 239.1 830.1 238.8V235.8C830.1 235.6 830.2 235.4 830.3 235.3L833.2 232.4L836.2 229.4C835.8 229 835.4 228.625 835 228.25C834.6 227.875 834.2 227.5 833.8 227.1C833.2 227.7 832.575 228.3 831.95 228.9ZM830.2 246.3C830.2 247.7 829.1 248.8 827.7 248.8C826.3 248.8 825.2 247.7 825.2 246.2C825.2 244.8 826.4 243.7 827.7 243.7C829.1 243.8 830.2 244.9 830.2 246.3Z" fill="white"/>
<path fill-rule="evenodd" clip-rule="evenodd" d="M761.05 485.2C760.425 485.8 759.8 486.4 759.2 487C759.2 485.1 759.2 483 759.1 481.4H754.2V487.5C752.9 486.2 751.7 485 750.5 483.9C750.1 484.3 749.7 484.675 749.3 485.05C748.9 485.425 748.5 485.8 748.1 486.2L748.4 486.5C750.3 488.4 752.1 490.2 753.9 492.1C754.1 492.2 754.2 492.4 754.2 492.6V495.6C754.2 495.9 754.1 496 753.9 496.1C753.3 496.4 752.7 496.7 752.1 497.1C751.8 497.2 751.7 497.2 751.5 497.1C751.1 496.85 750.7 496.625 750.3 496.4C749.9 496.175 749.5 495.95 749.1 495.7C748.8 495.5 748.7 495.3 748.6 495C748 492.6 747.4 490.3 746.8 488C746.65 487.5 746.575 487.25 746.413 487.163C746.25 487.075 746 487.15 745.5 487.3L743.4 487.9C743.688 488.877 743.942 489.854 744.201 490.851C744.393 491.587 744.588 492.335 744.8 493.1C743 492 741.3 491 739.5 490C738.7 491.5 737.9 492.9 737.1 494.3L737.1 494.3C737.721 494.666 738.356 495.031 738.999 495.401C740.116 496.044 741.258 496.702 742.4 497.4C741.55 497.65 740.7 497.875 739.85 498.1C739 498.325 738.15 498.55 737.3 498.8C737.5 499.9 737.8 501 738.1 502C740.8 501.3 743.4 500.6 746 499.9C746.2 499.8 746.4 499.8 746.6 499.9C747.05 500.15 747.475 500.4 747.9 500.65C748.325 500.9 748.75 501.15 749.2 501.4C749.4 501.5 749.4 501.7 749.4 501.9V504C749.4 504.3 749.4 504.4 749.2 504.5C748.75 504.75 748.325 505 747.9 505.25C747.475 505.5 747.05 505.75 746.6 506C746.4 506.1 746.2 506.1 746 506.1C745.65 506 745.275 505.9 744.9 505.8C744.525 505.7 744.15 505.6 743.8 505.5C741.9 504.9 740 504.4 738.1 503.9C737.936 504.804 737.704 505.64 737.46 506.52C737.407 506.711 737.354 506.904 737.3 507.1C738.34 507.406 739.343 507.675 740.377 507.951C741.033 508.127 741.701 508.306 742.4 508.5C740.6 509.6 738.9 510.6 737.1 511.6C737.9 513.1 738.7 514.5 739.5 515.9L739.5 515.9C740.121 515.535 740.756 515.169 741.399 514.799C742.516 514.156 743.658 513.498 744.8 512.8C744.588 513.565 744.393 514.313 744.201 515.05C743.942 516.046 743.688 517.023 743.4 518C744.4 518.2 745.5 518.5 746.5 518.8C746.5 518.75 746.525 518.7 746.55 518.65C746.575 518.6 746.6 518.55 746.6 518.5C746.95 517.2 747.3 515.925 747.65 514.65C748 513.375 748.35 512.1 748.7 510.8C748.7 510.5 748.9 510.3 749.1 510.2C749.5 509.95 749.925 509.7 750.35 509.45C750.775 509.2 751.2 508.95 751.6 508.7C751.8 508.5 752 508.5 752.2 508.7C752.5 508.85 752.8 509.025 753.1 509.2C753.4 509.375 753.7 509.55 754 509.7C754.2 509.8 754.3 510 754.3 510.2V513.1C754.3 513.4 754.2 513.6 754 513.8C752.804 514.93 751.652 516.104 750.485 517.293C749.896 517.893 749.304 518.496 748.7 519.1C748.5 519.2 748.3 519.3 748.1 519.5C748.563 519.963 749 520.374 749.424 520.772C749.824 521.147 750.212 521.512 750.6 521.9C751.2 521.3 751.825 520.7 752.45 520.1C753.075 519.5 753.7 518.9 754.3 518.3V524.3H759.2V518.2C759.85 518.8 760.475 519.425 761.088 520.038C761.7 520.65 762.3 521.25 762.9 521.8C763.3 521.4 763.7 521.025 764.1 520.65C764.5 520.275 764.9 519.9 765.3 519.5C765.1 519.4 765 519.3 764.9 519.2C764 518.3 763.1 517.375 762.2 516.45C761.3 515.525 760.4 514.6 759.5 513.7C759.3 513.6 759.2 513.4 759.2 513.2V510.1C759.2 510 759.4 509.8 759.5 509.7C759.8 509.5 760.1 509.325 760.4 509.15C760.7 508.975 761 508.8 761.3 508.6C761.5 508.5 761.6 508.5 761.8 508.6C762.6 509 763.5 509.5 764.3 510C764.6 510.1 764.7 510.3 764.8 510.6C765.4 512.8 766 515.1 766.6 517.4L766.6 517.4C766.7 517.7 766.8 518.1 766.9 518.5L766.9 518.5C768 518.3 769 518 770 517.7C769.713 516.723 769.458 515.746 769.199 514.75C769.007 514.013 768.813 513.265 768.6 512.5C770.4 513.6 772.1 514.6 773.9 515.6C774.7 514.1 775.5 512.7 776.3 511.3L776.3 511.3C775.679 510.935 775.044 510.569 774.401 510.199C773.285 509.556 772.142 508.898 771 508.2C771.85 507.95 772.7 507.725 773.55 507.5C774.4 507.275 775.25 507.05 776.1 506.8C775.9 505.7 775.6 504.6 775.3 503.6C772.6 504.3 770 505 767.4 505.7C767.2 505.7 766.9 505.7 766.7 505.6C766.3 505.35 765.875 505.1 765.45 504.85C765.025 504.6 764.6 504.35 764.2 504.1C764 504 764 503.8 764 503.6V501.5C764 501.2 764 501.1 764.2 501C764.65 500.75 765.075 500.5 765.5 500.25C765.925 500 766.35 499.75 766.8 499.5C766.9 499.4 767.1 499.4 767.3 499.4C767.9 499.5 768.4 499.6 769 499.8C770.05 500.1 771.1 500.375 772.15 500.65C773.2 500.925 774.25 501.2 775.3 501.5C775.464 500.596 775.696 499.76 775.94 498.88C775.993 498.689 776.047 498.496 776.1 498.3C775.06 497.994 774.057 497.726 773.023 497.449C772.367 497.273 771.699 497.094 771 496.9C772.142 496.202 773.285 495.544 774.401 494.901C775.044 494.531 775.679 494.166 776.3 493.8C775.5 492.3 774.7 490.9 773.9 489.5L773.9 489.5C773.279 489.866 772.644 490.231 772.001 490.601C770.885 491.244 769.742 491.902 768.6 492.6C768.813 491.835 769.007 491.087 769.199 490.351C769.458 489.354 769.713 488.377 770 487.4C768.9 487.2 767.9 486.9 766.9 486.6C766.9 486.65 766.875 486.725 766.85 486.8C766.825 486.875 766.8 486.95 766.8 487C766.45 488.25 766.125 489.5 765.8 490.75C765.475 492 765.15 493.25 764.8 494.5C764.781 494.539 764.762 494.581 764.742 494.625C764.658 494.808 764.562 495.019 764.4 495.1C763.6 495.6 762.7 496.1 761.8 496.6C761.7 496.7 761.4 496.7 761.3 496.6C761 496.45 760.7 496.275 760.4 496.1C760.1 495.925 759.8 495.75 759.5 495.6C759.3 495.5 759.2 495.4 759.2 495.1V492.1C759.2 491.9 759.3 491.7 759.4 491.6L762.3 488.7L765.3 485.7C764.9 485.3 764.5 484.925 764.1 484.55C763.7 484.175 763.3 483.8 762.9 483.4C762.3 484 761.675 484.6 761.05 485.2ZM759.3 502.6C759.3 504 758.2 505.1 756.8 505.1C755.4 505.1 754.3 504 754.3 502.5C754.3 501.1 755.5 500 756.8 500C758.2 500.1 759.3 501.2 759.3 502.6Z" fill="#B7C3F9"/>
<path d="M864.3 540C861.9 542.1 859.3 544.4 856.4 546.7C796.3 595.3 785.5 597.7 785.5 597.7C785.5 597.7 788.3 561.5 817.3 531C833.9 513.6 861.3 494.3 873.3 484.4L864.3 540Z" fill="#020B30"/>
<path d="M875.3 421.6C875.2 421.7 875.2 421.8 875.1 421.9C869.8 429.6 868.4 437.8 868.4 446.4C867.2 444.9 866.3 444 866.3 444C866.3 444 854.4 449.6 860.3 449.6C863.2 449.6 867.4 452.5 868.8 455.9C870 470.8 873 487.1 867.1 504.5C867.1 504.5 849.2 583.4 849.2 599C849.2 614 851.8 628 856.3 640.3C889 645.4 923.5 644.6 960.7 634.2C961.4 634 962.1 633.8 962.8 633.7C966 623.1 967.7 611.3 967.7 599C967.7 583.5 964.9 568.9 960.1 556.3C962.5 558.4 965.1 560.7 968 563C1028.1 611.6 1044.4 611.6 1044.4 611.6C1044.4 611.6 1018.6 544 986 517.5C953.1 490.9 930.9 447.1 924.8 428.5C924.4 427.3 923.9 426.1 923.3 424.9C923.2 424.8 923.2 424.7 923.1 424.6C918.4 415.1 908.6 409.1 897.9 409.4C897.8 409.4 897.6 409.4 897.5 409.4C888.7 409.6 880.5 413.9 875.5 421.1C875.6 421.2 875.5 421.4 875.3 421.6Z" fill="#060F3F"/>
<path d="M856.4 546.6C824.7 572.3 806.8 585 796.8 591.4C811.7 540 867.2 503.5 867.2 503.5H870.2L869.5 507.9L864.3 540C861.9 542.1 859.2 544.4 856.4 546.6Z" fill="#FFFED4"/>
<path d="M960.3 556.3C962.7 558.4 965.3 560.7 968.2 562.9C992.3 582.4 1009.3 594 1021.1 601C1014.3 582.6 1002.6 554.2 990.8 543.5C981.7 535.1 965.7 522.6 951.3 512C944.4 506.9 938.3 500.7 933.1 493.9C930.3 490.3 927.7 488.1 925.3 488.1C905.4 487.9 915.2 461.6 907.2 458.3C897.7 454.4 885.8 482.8 870.7 476.8C871.1 485.6 870.5 494.9 867.3 504.5C867.3 504.5 849.4 583.4 849.4 599C849.4 614 852 628 856.5 640.3C889.2 645.4 923.7 644.6 960.9 634.2C961.6 634 962.3 633.8 963 633.7C966.2 623.1 967.9 611.3 967.9 599C967.9 593.8 967.6 588.8 967 583.9C967 583.7 967 583.6 966.9 583.4C966.8 582.7 966.7 582 966.6 581.3C966.5 580.7 966.4 580.1 966.3 579.5C966.2 578.9 966.1 578.3 966 577.7C965.9 577 965.8 576.3 965.6 575.6C965.5 575.1 965.4 574.6 965.3 574.1C965.1 573.3 965 572.6 964.8 571.8C964.7 571.4 964.6 571 964.5 570.6C964.3 569.7 964.1 568.9 963.9 568C963.8 567.8 963.8 567.6 963.7 567.4C963.7 567.3 963.7 567.3 963.7 567.2C962.8 563.5 961.6 559.8 960.3 556.3Z" fill="#FCFCE3"/>
<path opacity="0.5" d="M960.3 556.3C948.7 547.8 944 544.2 942.3 542.7C943.5 548.4 954.4 602.5 946.9 637.7C951.5 636.7 956.2 635.5 960.9 634.2C961.6 634 962.3 633.8 963 633.7C966.2 623.1 967.9 611.3 967.9 599C967.9 587.8 966.5 577.2 963.9 567.4C962.8 563.9 961.6 560.1 960.3 556.3Z" fill="#FCFAB4"/>
<path d="M892.9 431.3C894.778 431.3 896.3 429.778 896.3 427.9C896.3 426.022 894.778 424.5 892.9 424.5C891.022 424.5 889.5 426.022 889.5 427.9C889.5 429.778 891.022 431.3 892.9 431.3Z" fill="#FCFCE3"/>
<path d="M892.5 429.5C893.605 429.5 894.5 428.605 894.5 427.5C894.5 426.396 893.605 425.5 892.5 425.5C891.396 425.5 890.5 426.396 890.5 427.5C890.5 428.605 891.396 429.5 892.5 429.5Z" fill="#060F3F"/>
<path d="M868.9 455.9L878.9 445.9L863.5 450.5C865.8 451.6 868 453.7 868.9 455.9Z" fill="#060F3F"/>
<path d="M871.2 431.6C871.2 431.6 854.2 440.8 844.6 452C843.6 453.1 844.7 454.8 846.1 454.4C854.3 452.1 871.9 447.9 879.1 452.3L878.9 448.9C878.5 442.4 875.8 436.3 871.2 431.6Z" fill="#13215B"/>
<path d="M638 462.2C674.009 462.2 703.2 452.306 703.2 440.1C703.2 427.895 674.009 418 638 418C601.991 418 572.8 427.895 572.8 440.1C572.8 452.306 601.991 462.2 638 462.2Z" fill="#C5CEFF"/>
<path d="M638 462.3C672.297 462.3 700.1 455.405 700.1 446.9C700.1 438.395 672.297 431.5 638 431.5C603.703 431.5 575.9 438.395 575.9 446.9C575.9 455.405 603.703 462.3 638 462.3Z" fill="#E1E7FF"/>
<path opacity="0.3" fill-rule="evenodd" clip-rule="evenodd" d="M638 434.9C618.3 434.9 601.2 438.7 592.8 444.3C591 445.5 591 448.2 592.8 449.4C601.2 455 618.3 458.8 638 458.8C657.7 458.8 674.8 455 683.2 449.4C685 448.2 685 445.5 683.2 444.3C674.8 438.8 657.7 434.9 638 434.9Z" stroke="#AEC5FC"/>
<path opacity="0.3" fill-rule="evenodd" clip-rule="evenodd" d="M638 439.1C626.4 439.1 616.1 441.1 610.2 444.2C608 445.3 608 448.5 610.2 449.6C616.1 452.7 626.3 454.7 638 454.7C649.6 454.7 659.9 452.7 665.8 449.6C668 448.5 668 445.3 665.8 444.2C659.9 441.1 649.7 439.1 638 439.1Z" stroke="#AEC5FC"/>
<path opacity="0.3" fill-rule="evenodd" clip-rule="evenodd" d="M638 442.1C632.6 442.1 627.7 442.8 624.1 444C621.3 444.9 621.3 448.9 624.1 449.8C627.7 451 632.6 451.7 638 451.7C643.4 451.7 648.3 451 651.9 449.8C654.7 448.9 654.7 444.9 651.9 444C648.3 442.8 643.4 442.1 638 442.1Z" stroke="#AEC5FC"/>
<path d="M458.4 453V473.5" stroke="white"/>
<path d="M448.2 463.3H468.7" stroke="white"/>
<path d="M451.2 456L465.7 470.5" stroke="white"/>
<path d="M451.2 470.5L465.7 456" stroke="white"/>
<path d="M748 518.3V538.8" stroke="white"/>
<path d="M737.7 528.6H758.3" stroke="white"/>
<path d="M740.7 521.3L755.3 535.8" stroke="white"/>
<path d="M740.7 535.8L755.3 521.3" stroke="white"/>
<path d="M783.4 462V482.5" stroke="white"/>
<path d="M773.1 472.2H793.7" stroke="white"/>
<path d="M776.1 465L790.7 479.5" stroke="white"/>
<path d="M776.1 479.5L790.7 465" stroke="white"/>
<path fill-rule="evenodd" clip-rule="evenodd" d="M1090.4 478.2C1089.15 479.4 1087.9 480.6 1086.7 481.8C1086.7 477.9 1086.7 473.7 1086.4 469.3H1076.5V481.7C1075.22 480.424 1073.92 479.174 1072.65 477.95C1071.42 476.776 1070.23 475.626 1069.1 474.5C1068.29 475.263 1067.5 476.025 1066.7 476.801C1065.92 477.551 1065.14 478.313 1064.3 479.1C1064.6 479.3 1064.8 479.5 1065 479.7C1068.7 483.4 1072.4 487.1 1076.1 490.9C1076.4 491.2 1076.6 491.6 1076.6 492V498.1C1076.7 498.6 1076.4 498.8 1076 499C1074.8 499.6 1073.6 500.3 1072.4 501.1C1072 501.4 1071.7 501.5 1071.3 501.2L1071.3 501.2C1069.7 500.2 1068.1 499.2 1066.4 498.3C1065.8 498 1065.6 497.6 1065.4 497C1064.8 494.65 1064.18 492.3 1063.55 489.95C1062.93 487.6 1062.3 485.25 1061.7 482.9C1061.4 481.896 1061.25 481.396 1060.92 481.21C1060.6 481.026 1060.1 481.151 1059.1 481.4C1058.4 481.6 1057.68 481.8 1056.95 482C1056.23 482.2 1055.5 482.4 1054.8 482.6C1055.3 484.4 1055.75 486.15 1056.2 487.9C1056.65 489.65 1057.1 491.4 1057.6 493.2C1055.13 491.733 1052.76 490.356 1050.38 488.978C1049.19 488.289 1048 487.6 1046.8 486.9C1045.88 488.632 1044.92 490.296 1043.97 491.952C1043.27 493.165 1042.58 494.374 1041.9 495.6C1043.1 496.3 1044.29 496.989 1045.48 497.678C1047.86 499.056 1050.23 500.433 1052.7 501.9C1051.4 502.262 1050.12 502.624 1048.86 502.981C1046.64 503.611 1044.47 504.226 1042.3 504.8C1042.56 505.737 1042.79 506.656 1043.03 507.564C1043.34 508.789 1043.66 509.994 1044 511.2C1047.02 510.416 1050.02 509.601 1052.99 508.789C1055.34 508.152 1057.67 507.516 1060 506.9C1060.4 506.8 1061 506.8 1061.3 507C1062.25 507.501 1063.19 508.063 1064.15 508.636C1064.92 509.093 1065.7 509.556 1066.5 510C1066.9 510.2 1067 510.4 1067 510.9C1066.93 511.837 1066.96 512.819 1066.98 513.785C1066.99 514.263 1067 514.737 1067 515.2C1067 515.7 1066.9 516 1066.5 516.2C1064.8 517.2 1063.1 518.2 1061.3 519.2C1061 519.4 1060.5 519.4 1060.1 519.3C1059.1 519.1 1058.1 518.811 1057.1 518.522C1056.6 518.378 1056.1 518.233 1055.6 518.1C1051.7 517.1 1047.9 516.1 1044 515C1043.66 516.206 1043.34 517.412 1043.03 518.636C1042.79 519.545 1042.56 520.463 1042.3 521.4C1045.7 522.3 1049.1 523.2 1052.7 524.2C1050.17 525.667 1047.81 527.044 1045.46 528.422C1044.28 529.111 1043.1 529.8 1041.9 530.5L1041.9 530.5C1043.5 533.4 1045.1 536.3 1046.8 539.2C1048 538.5 1049.19 537.811 1050.38 537.122C1052.76 535.745 1055.13 534.367 1057.6 532.9C1056.6 536.6 1055.7 540 1054.8 543.5C1055.85 543.8 1056.9 544.075 1057.95 544.35C1059 544.625 1060.05 544.9 1061.1 545.2C1061.14 545.085 1061.18 545 1061.21 544.927C1061.26 544.809 1061.3 544.724 1061.3 544.6L1065.5 529C1065.7 528.6 1066 528.1 1066.4 527.9C1067.71 527.05 1068.97 526.32 1070.25 525.57C1070.63 525.35 1071.01 525.128 1071.4 524.9C1071.8 524.6 1072.1 524.6 1072.6 524.9C1073.8 525.7 1075 526.4 1076.2 527C1076.6 527.3 1076.8 527.5 1076.8 528V533.8C1076.8 534.4 1076.6 534.9 1076.2 535.3C1074.4 537.1 1072.63 538.9 1070.85 540.7C1069.08 542.5 1067.3 544.3 1065.5 546.1C1065.3 546.3 1065.01 546.5 1064.72 546.7C1064.58 546.8 1064.43 546.9 1064.3 547C1065.19 547.836 1066 548.623 1066.8 549.398C1067.62 550.199 1068.44 550.987 1069.3 551.8C1070.5 550.6 1071.75 549.375 1073 548.15C1074.25 546.925 1075.5 545.7 1076.7 544.5V556.7H1086.6V544.4C1088.31 545.978 1089.98 547.6 1091.6 549.18C1092.45 550.002 1093.28 550.813 1094.1 551.6C1094.91 550.838 1095.7 550.075 1096.5 549.299C1097.28 548.549 1098.06 547.787 1098.9 547C1098.6 546.8 1098.3 546.6 1098.1 546.4C1096.25 544.55 1094.43 542.675 1092.6 540.8C1090.78 538.925 1088.95 537.05 1087.1 535.2C1087.08 535.171 1087.06 535.141 1087.04 535.11C1086.84 534.822 1086.6 534.461 1086.6 534.1V527.9C1086.6 527.6 1086.9 527.3 1087.1 527.1C1087.42 526.913 1087.75 526.727 1088.08 526.539C1088.99 526.02 1089.92 525.487 1090.8 524.9C1091.3 524.7 1091.5 524.7 1091.9 524.9C1092.36 525.172 1092.82 525.445 1093.27 525.715C1094.48 526.437 1095.66 527.145 1096.9 527.8C1097.5 528.1 1097.7 528.5 1097.9 529.1L1101.5 542.9C1101.7 543.6 1101.9 544.4 1102.1 545.2C1102.96 544.966 1103.79 544.747 1104.6 544.531C1105.88 544.194 1107.12 543.866 1108.4 543.5C1107.5 540 1106.6 536.5 1105.6 532.9C1107.36 533.944 1109.09 534.943 1110.8 535.929C1112.69 537.021 1114.56 538.097 1116.4 539.2C1116.73 538.623 1117.05 538.054 1117.37 537.489C1118.72 535.119 1120.01 532.842 1121.3 530.5C1120.1 529.8 1118.91 529.111 1117.72 528.422C1115.34 527.044 1112.97 525.667 1110.5 524.2C1112.69 523.653 1114.81 523.068 1116.89 522.492C1118.24 522.121 1119.57 521.753 1120.9 521.4C1120.64 520.463 1120.41 519.545 1120.17 518.636C1119.86 517.412 1119.54 516.206 1119.2 515C1113.8 516.5 1108.5 517.9 1103.2 519.3L1103.2 519.3C1102.8 519.4 1102.2 519.3 1101.8 519.1C1100.1 518.2 1098.4 517.2 1096.7 516.2C1096.3 516 1096.2 515.8 1096.2 515.3C1096.3 513.9 1096.3 512.4 1096.2 511C1096.2 510.5 1096.3 510.2 1096.7 510C1098.4 509 1100.1 508 1101.9 507C1102.2 506.9 1102.7 506.8 1103 506.9C1104.2 507.2 1105.3 507.5 1106.4 507.8L1106.4 507.8C1108.75 508.471 1111.13 509.111 1113.52 509.754C1115.41 510.262 1117.3 510.771 1119.2 511.3C1119.54 510.094 1119.86 508.889 1120.17 507.664C1120.41 506.756 1120.64 505.837 1120.9 504.9L1120.9 504.9C1117.5 504 1114.1 503.1 1110.5 502.1C1111.3 501.636 1112.09 501.18 1112.87 500.731C1115.78 499.051 1118.54 497.457 1121.3 495.8C1120.38 494.069 1119.42 492.404 1118.47 490.748C1117.77 489.535 1117.08 488.326 1116.4 487.1C1115.2 487.8 1114.01 488.489 1112.82 489.178C1110.44 490.556 1108.07 491.933 1105.6 493.4C1106.6 489.7 1107.5 486.3 1108.4 482.8C1107.54 482.566 1106.71 482.347 1105.9 482.131C1104.62 481.794 1103.38 481.466 1102.1 481.1C1102.03 481.367 1101.97 481.544 1101.9 481.722C1101.87 481.811 1101.83 481.9 1101.8 482C1100.5 487.1 1099.2 492.1 1097.8 497.2C1097.7 497.6 1097.4 498.1 1097.1 498.3C1095.4 499.4 1093.6 500.4 1091.8 501.4L1091.8 501.4C1091.6 501.5 1091.2 501.4 1090.9 501.3C1089.6 500.6 1088.4 499.9 1087.2 499.2C1086.8 499 1086.6 498.8 1086.6 498.3V492.2C1086.6 491.936 1086.83 491.596 1087.02 491.313C1087.05 491.274 1087.08 491.236 1087.1 491.2C1088.05 490.2 1089.03 489.225 1090 488.25C1090.98 487.275 1091.95 486.3 1092.9 485.3C1094.9 483.3 1096.9 481.3 1098.9 479.2C1098.09 478.438 1097.3 477.675 1096.5 476.899C1095.72 476.149 1094.94 475.387 1094.1 474.6C1092.9 475.8 1091.65 477 1090.4 478.2ZM1086.8 513.4C1086.8 516.1 1084.5 518.4 1081.8 518.4C1079.1 518.4 1076.8 516.1 1076.8 513.3C1076.8 510.5 1079.1 508.2 1081.8 508.2C1084.6 508.3 1086.8 510.5 1086.8 513.4Z" fill="#E1E7FF"/>
</svg>
